<?xml version="1.0" encoding="UTF-8" standalone="no"?>
<svg width="40px" height="40px" viewBox="0 0 40 40" version="1.1" xmlns="http://www.w3.org/2000/svg" xmlns:xlink="http://www.w3.org/1999/xlink">
    <!-- Generator: Sketch 3.6 (26304) - http://www.bohemiancoding.com/sketch -->
    <title>footer-social__item--facebook</title>
    <desc>Created with Sketch.</desc>
    <defs></defs>
    <g id="Home" stroke="none" stroke-width="1" fill="none" fill-rule="evenodd">
        <g id="Desktop-HD" transform="translate(-630.000000, -2386.000000)">
            <g id="footer" transform="translate(0.000000, 2339.000000)">
                <rect id="footer__background" fill="#38CD8A" x="0" y="0" width="1440" height="213"></rect>
                <g id="footer-social" transform="translate(630.000000, 47.000000)">
                    <g id="footer-social__item--facebook">
                        <path d="M20,40 C31.0456955,40 40,31.0456955 40,20 C40,8.95430446 31.0456955,0 20,0 C8.95430446,0 0,8.95430446 0,20 C0,31.0456955 8.95430446,40 20,40 Z" id="FB-BG" fill="#FFFFFF"></path>
                        <path d="M21.6255447,20.8237793 L25.5136955,20.8237793 L26.4,16.7860397 L21.6255447,16.7860397 L21.6255447,14.0009796 C21.6255447,12.7657291 22.2604968,11.9850651 24.0797287,11.9850651 L26.4,11.9840059 L26.4,8.1680966 C25.9984941,8.11619532 24.6213429,8 23.0190178,8 C19.6737153,8 17.6057926,9.98867194 17.6057926,13.640086 L17.6057926,16.7860397 L13.6,16.7860396 L13.6,20.8237793 L17.6057926,20.8237793 L17.6057926,32 L21.6255447,32 L21.6255447,20.8237793 Z" id="FB-Logo" fill="#38CD8A"></path>
                    </g>
                </g>
            </g>
        </g>
    </g>
</svg>