<?xml version="1.0" encoding="UTF-8" standalone="no"?>
<svg width="40px" height="40px" viewBox="0 0 40 40" version="1.1" xmlns="http://www.w3.org/2000/svg" xmlns:xlink="http://www.w3.org/1999/xlink">
    <!-- Generator: Sketch 3.6 (26304) - http://www.bohemiancoding.com/sketch -->
    <title>footer-social__item--gplus</title>
    <desc>Created with Sketch.</desc>
    <defs></defs>
    <g id="Home" stroke="none" stroke-width="1" fill="none" fill-rule="evenodd">
        <g id="Desktop-HD" transform="translate(-770.000000, -2386.000000)">
            <g id="footer" transform="translate(0.000000, 2339.000000)">
                <rect id="footer__background" fill="#38CD8A" x="0" y="0" width="1440" height="213"></rect>
                <g id="footer-social" transform="translate(630.000000, 47.000000)">
                    <g id="footer-social__item--gplus" transform="translate(140.000000, 0.000000)">
                        <path d="M20,40 C31.0456955,40 40,31.0456955 40,20 C40,8.95430446 31.0456955,0 20,0 C8.95430446,0 0,8.95430446 0,20 C0,31.0456955 8.95430446,40 20,40 Z" id="Google+-BG" fill="#FFFFFF"></path>
                        <g id="Google+-Logo" transform="translate(9.600000, 9.600000)" fill="#38CD8A">
                            <path d="M6.56885713,20 L6.56885713,20 C4.14823041,20 2.4,18.3256852 2.4,16.3146186 C2.4,14.3434003 4.54465743,12.7720458 6.96528415,12.8003772 C7.53018203,12.8070569 8.08020858,12.8370006 8.55821544,13.0060675 C9.87220318,14.0045755 10.8148327,14.5688995 11.080817,15.7065307 C11.1307421,15.9373277 11.2,16.266248 11.2,16.5087922 C11.2,18.520089 9.97184105,20 6.56885713,20 L6.56885713,20 Z M6.95638036,8.79895299 L6.95638036,8.79895299 C5.22256967,8.74907702 3.36068955,7.12940895 3.20995297,4.92098752 C3.08211022,3.04803624 4.19665423,0.750922318 5.93001158,0.800798293 C7.66314226,0.85089112 9.25369653,2.72080647 9.55312965,4.91556622 C9.85210943,7.11054282 8.68951104,8.84882897 6.95638036,8.79895299 L6.95638036,8.79895299 Z M10.8243236,11.9972498 C10.23389,11.5862616 9.10473786,10.5867055 9.10473786,9.99899656 C9.10473786,9.31058049 9.30455663,8.97131118 10.3586667,8.16135939 C11.4389644,7.33143795 12.0595469,6.08172443 12.0595469,4.72400301 C12.0595469,3.10817926 11.4528285,1.59327738 10.0789644,1.07363705 L12.0595469,1.07363705 L13.6,-9.23705556e-14 L6.99805825,-9.23705556e-14 C4.06943689,-9.23705556e-14 1.4130356,2.23917743 1.4130356,4.76651904 C1.4130356,7.34926033 3.40946278,9.43361929 6.38913916,9.43361929 C6.59622006,9.43361929 6.79757929,9.42953947 6.99475728,9.41558219 C6.80132039,9.77954515 6.57993528,10.1675576 6.57993528,10.5931473 C6.57993528,11.310981 7.05571521,11.9150092 7.55240129,12.3899863 C7.17719094,12.3899863 6.8149644,12.4005079 6.41972816,12.4005079 C2.79218123,12.4005079 2.13162821e-14,14.6725386 2.13162821e-14,17.028313 C2.13162821e-14,19.3484427 3.06088026,20.8 6.68864725,20.8 C10.8243236,20.8 13.1598706,18.5107911 13.1598706,16.1904467 C13.1598706,14.3300484 12.5500712,13.1973613 10.8243236,11.9972498 L10.8243236,11.9972498 Z" id="Fill-1"></path>
                            <path d="M18.4353516,2.40664062 L18.4353516,-9.23705556e-14 L16.801123,-9.23705556e-14 L16.801123,2.40664062 L14.4061523,2.40664062 L14.4061523,4.03061523 L16.801123,4.03061523 L16.801123,6.4 L18.4353516,6.4 L18.4353516,4.03061523 L20.8,3.98032227 L20.8,2.40664062 L18.4353516,2.40664062 Z" id="Fill-2"></path>
                        </g>
                    </g>
                </g>
            </g>
        </g>
    </g>
</svg>