<?xml version="1.0" encoding="UTF-8" standalone="no"?>
<svg width="75px" height="36px" viewBox="0 0 75 36" version="1.1" xmlns="http://www.w3.org/2000/svg" xmlns:xlink="http://www.w3.org/1999/xlink">
    <!-- Generator: Sketch 3.6 (26304) - http://www.bohemiancoding.com/sketch -->
    <title>Expanded 11 + Oval 8 + Expanded 11 + Oval 9 + Expanded 8</title>
    <desc>Created with Sketch.</desc>
    <defs></defs>
    <g id="Home" stroke="none" stroke-width="1" fill="none" fill-rule="evenodd">
        <g id="Desktop-HD" transform="translate(-1133.000000, -1027.000000)">
            <g id="showcase" transform="translate(135.000000, 784.000000)">
                <g id="showcase-items" transform="translate(0.000000, 201.000000)">
                    <g id="showcase-item" transform="translate(903.000000, 0.000000)">
                        <g id="showcase-item__icon" transform="translate(72.000000, 0.000000)">
                            <circle id="Oval-7" stroke="#D7D7D7" fill="#FBFBFB" cx="60" cy="60" r="60"></circle>
                            <g id="Expanded-11-+-Oval-8-+-Expanded-11-+-Oval-9-+-Expanded-8" transform="translate(23.000000, 42.000000)">
                                <g id="Expanded-11-+-Oval-8" transform="translate(42.000000, 2.000000)">
                                    <g id="Expanded-11" transform="translate(6.000000, 0.000000)" fill="#38CD8A">
                                        <g id="Group">
                                            <path d="M0,28.6666667 L0,25.3516667 C0,23.3366667 1.25568182,21.5275 3.12607323,20.85 L9.07127525,18.6933333 L9.07127525,15.7016667 L10.7126894,15.7016667 L10.7126894,19.8683333 L3.67676768,22.4191667 C2.45965909,22.8608333 1.64141414,24.0391667 1.64141414,25.3516667 L1.64141414,27 L24.6212121,27 L24.6212121,25.3516667 C24.6212121,24.0391667 23.8037879,22.8608333 22.5866793,22.4183333 L15.5507576,19.8675 L15.5507576,15.475 L17.1921717,15.475 L17.1921717,18.6933333 C17.1921717,18.6933333 18.8848234,19.307186 19.7311493,19.6141123 C20.8671046,20.0260749 23.1390152,20.85 23.1390152,20.85 C25.0077652,21.5283333 26.2626263,23.3366667 26.2626263,25.3516667 L26.2626263,28.6666667 L0,28.6666667 Z" id="Shape"></path>
                                            <path d="M12.9696338,17.4825 C8.94488636,17.4825 5.66944444,13.5666667 5.66944444,8.75333333 C5.66944444,3.94166667 8.94406566,0.0258333333 12.9696338,0.0258333333 C16.995202,0.0258333333 20.2698232,3.94083333 20.2698232,8.75333333 C20.2690025,13.5666667 16.9943813,17.4825 12.9696338,17.4825 L12.9696338,17.4825 Z M12.9696338,1.69333333 C9.84930556,1.69333333 7.31085859,4.86083333 7.31085859,8.75416667 C7.31085859,12.6483333 9.84930556,15.8166667 12.9696338,15.8166667 C16.0899621,15.8166667 18.6284091,12.6483333 18.6284091,8.75416667 C18.6275884,4.86083333 16.0891414,1.69333333 12.9696338,1.69333333 L12.9696338,1.69333333 Z" id="Shape"></path>
                                            <path d="M17.7067551,9.04416667 C16.1654672,9.04416667 14.9409722,8.38 13.9003157,6.98166667 C12.7398359,8.1175 10.8292298,8.92916667 9.08194444,8.92916667 C8.01994949,8.92916667 7.10157828,8.70416667 6.19223485,8.22083333 L6.95385101,6.745 C7.62765152,7.10333333 8.28421717,7.2625 9.08194444,7.2625 C10.6921717,7.2625 12.6708965,6.26583333 13.2339015,5.17083333 L13.9290404,3.81916667 L14.6742424,5.14333333 C15.7501894,7.05666667 16.8294192,7.63166667 18.6456439,7.27833333 C18.8270202,7.24333333 18.992803,7.24166667 19.1536616,7.24166667 C19.208649,7.24166667 19.2644571,7.245 19.3243687,7.2375 L19.5229798,8.89083333 C19.3892045,8.90833333 19.2652778,8.90916667 19.1380682,8.90833333 C19.0806187,8.90583333 19.0182449,8.9025 18.9534091,8.915 C18.5167929,9 18.1015152,9.04416667 17.7067551,9.04416667 L17.7067551,9.04416667 Z" id="Shape"></path>
                                        </g>
                                    </g>
                                    <path d="M8,31 C15.9151554,31 15,28.7614237 15,26 C15,23.2385763 11.8659932,21 8,21 C4.13400675,21 1,23.2385763 1,26 C1,28.7614237 0.0848445892,31 8,31 Z" id="Oval-8" fill="#FBFBFB"></path>
                                </g>
                                <g id="Expanded-11-+-Oval-9" transform="translate(16.500000, 18.500000) scale(-1, 1) translate(-16.500000, -18.500000) translate(0.000000, 3.000000)">
                                    <g id="Expanded-11" transform="translate(6.000000, 0.000000)" fill="#38CD8A">
                                        <g id="Group">
                                            <path d="M0,28.6666667 L0,25.3516667 C0,23.3366667 1.25568182,21.5275 3.12607323,20.85 L9.07127525,18.6933333 L9.07127525,15.7016667 L10.7126894,15.7016667 L10.7126894,19.8683333 L3.67676768,22.4191667 C2.45965909,22.8608333 1.64141414,24.0391667 1.64141414,25.3516667 L1.64141414,27 L24.6212121,27 L24.6212121,25.3516667 C24.6212121,24.0391667 23.8037879,22.8608333 22.5866793,22.4183333 L15.5507576,19.8675 L15.5507576,15.475 L17.1921717,15.475 L17.1921717,18.6933333 C17.1921717,18.6933333 18.8848234,19.307186 19.7311493,19.6141123 C20.8671046,20.0260749 23.1390152,20.85 23.1390152,20.85 C25.0077652,21.5283333 26.2626263,23.3366667 26.2626263,25.3516667 L26.2626263,28.6666667 L0,28.6666667 Z" id="Shape"></path>
                                            <path d="M12.9696338,17.4825 C8.94488636,17.4825 5.66944444,13.5666667 5.66944444,8.75333333 C5.66944444,3.94166667 8.94406566,0.0258333333 12.9696338,0.0258333333 C16.995202,0.0258333333 20.2698232,3.94083333 20.2698232,8.75333333 C20.2690025,13.5666667 16.9943813,17.4825 12.9696338,17.4825 L12.9696338,17.4825 Z M12.9696338,1.69333333 C9.84930556,1.69333333 7.31085859,4.86083333 7.31085859,8.75416667 C7.31085859,12.6483333 9.84930556,15.8166667 12.9696338,15.8166667 C16.0899621,15.8166667 18.6284091,12.6483333 18.6284091,8.75416667 C18.6275884,4.86083333 16.0891414,1.69333333 12.9696338,1.69333333 L12.9696338,1.69333333 Z" id="Shape"></path>
                                            <path d="M17.7067551,9.04416667 C16.1654672,9.04416667 14.9409722,8.38 13.9003157,6.98166667 C12.7398359,8.1175 10.8292298,8.92916667 9.08194444,8.92916667 C8.01994949,8.92916667 7.10157828,8.70416667 6.19223485,8.22083333 L6.95385101,6.745 C7.62765152,7.10333333 8.28421717,7.2625 9.08194444,7.2625 C10.6921717,7.2625 12.6708965,6.26583333 13.2339015,5.17083333 L13.9290404,3.81916667 L14.6742424,5.14333333 C15.7501894,7.05666667 16.8294192,7.63166667 18.6456439,7.27833333 C18.8270202,7.24333333 18.992803,7.24166667 19.1536616,7.24166667 C19.208649,7.24166667 19.2644571,7.245 19.3243687,7.2375 L19.5229798,8.89083333 C19.3892045,8.90833333 19.2652778,8.90916667 19.1380682,8.90833333 C19.0806187,8.90583333 19.0182449,8.9025 18.9534091,8.915 C18.5167929,9 18.1015152,9.04416667 17.7067551,9.04416667 L17.7067551,9.04416667 Z" id="Shape"></path>
                                        </g>
                                    </g>
                                    <path d="M8,31 C15.9151554,31 15,28.7614237 15,26 C15,23.2385763 11.8659932,21 8,21 C4.13400675,21 1,23.2385763 1,26 C1,28.7614237 0.0848445892,31 8,31 Z" id="Oval-8" fill="#FBFBFB"></path>
                                </g>
                                <g id="Expanded-8" transform="translate(21.333333, 0.166667)" fill="#38CD8A">
                                    <g id="Group">
                                        <path d="M33.3333333,35.8333333 L0,35.8333333 L0,31.6895833 C0,29.1708333 1.59375,26.909375 3.96770833,26.0625 L11.5135417,23.3666667 L11.5135417,19.6270833 L13.596875,19.6270833 L13.596875,24.8354167 L4.66666667,28.0239583 C3.121875,28.5760417 2.08333333,30.0489583 2.08333333,31.6895833 L2.08333333,33.75 L31.25,33.75 L31.25,31.6895833 C31.25,30.0489583 30.2125,28.5760417 28.6677083,28.0229167 L19.7375,24.834375 L19.7375,19.34375 L21.8208333,19.34375 L21.8208333,23.3666667 L29.36875,26.0625 C31.740625,26.9104167 33.3333333,29.1708333 33.3333333,31.6895833 L33.3333333,35.8333333 L33.3333333,35.8333333 Z" id="Shape"></path>
                                        <path d="M16.4614583,21.853125 C11.353125,21.853125 7.19583333,16.9583333 7.19583333,10.9416667 C7.19583333,4.92708333 11.3520833,0.0322916667 16.4614583,0.0322916667 C21.5708333,0.0322916667 25.7270833,4.92604167 25.7270833,10.9416667 C25.7260417,16.9583333 21.5697917,21.853125 16.4614583,21.853125 L16.4614583,21.853125 Z M16.4614583,2.11666667 C12.5010417,2.11666667 9.27916667,6.07604167 9.27916667,10.9427083 C9.27916667,15.8104167 12.5010417,19.7708333 16.4614583,19.7708333 C20.421875,19.7708333 23.64375,15.8104167 23.64375,10.9427083 C23.6427083,6.07604167 20.4208333,2.11666667 16.4614583,2.11666667 L16.4614583,2.11666667 Z" id="Shape"></path>
                                        <path d="M22.4739583,11.3052083 C20.5177083,11.3052083 18.9635417,10.475 17.6427083,8.72708333 C16.1697917,10.146875 13.7447917,11.1614583 11.5270833,11.1614583 C10.1791667,11.1614583 9.01354167,10.8802083 7.859375,10.2760417 L8.82604167,8.43125 C9.68125,8.87916667 10.5145833,9.078125 11.5270833,9.078125 C13.5708333,9.078125 16.0822917,7.83229167 16.796875,6.46354167 L17.6791667,4.77395833 L18.625,6.42916667 C19.990625,8.82083333 21.3604167,9.53958333 23.665625,9.09791667 C23.8958333,9.05416667 24.10625,9.05208333 24.3104167,9.05208333 C24.3802083,9.05208333 24.4510417,9.05625 24.5270833,9.046875 L24.7791667,11.1135417 C24.609375,11.1354167 24.4520833,11.1364583 24.290625,11.1354167 C24.2177083,11.1322917 24.1385417,11.128125 24.05625,11.14375 C23.5020833,11.25 22.975,11.3052083 22.4739583,11.3052083 L22.4739583,11.3052083 Z" id="Shape"></path>
                                    </g>
                                </g>
                            </g>
                        </g>
                    </g>
                </g>
            </g>
        </g>
    </g>
</svg>