<?xml version="1.0" encoding="UTF-8" standalone="no"?>
<svg width="50px" height="56px" viewBox="0 0 50 56" version="1.1" xmlns="http://www.w3.org/2000/svg" xmlns:xlink="http://www.w3.org/1999/xlink">
    <!-- Generator: Sketch 3.6 (26304) - http://www.bohemiancoding.com/sketch -->
    <title>Group</title>
    <desc>Created with Sketch.</desc>
    <defs></defs>
    <g id="Home" stroke="none" stroke-width="1" fill="none" fill-rule="evenodd">
        <g id="Desktop-HD" transform="translate(-845.000000, -1017.000000)">
            <g id="showcase" transform="translate(135.000000, 784.000000)">
                <g id="showcase-items" transform="translate(0.000000, 201.000000)">
                    <g id="showcase-item" transform="translate(615.000000, 0.000000)">
                        <g id="showcase-item__icon" transform="translate(60.000000, 0.000000)">
                            <circle id="Oval-6" stroke="#D7D7D7" fill="#FBFBFB" cx="60" cy="60" r="60"></circle>
                            <g id="Expanded" transform="translate(35.000000, 32.000000)" fill="#38CD8A">
                                <g id="Group">
                                    <path d="M23.8636364,56 L5.68181818,56 C2.54886364,56 0,53.3831667 0,50.1666667 L0,5.83333333 C0,5.18816667 0.509090909,4.66666667 1.13636364,4.66666667 C1.76363636,4.66666667 2.27272727,5.18816667 2.27272727,5.83333333 L2.27272727,50.1666667 C2.27272727,52.0963333 3.80227273,53.6666667 5.68181818,53.6666667 L23.8636364,53.6666667 C24.4909091,53.6666667 25,54.1881667 25,54.8333333 C25,55.4785 24.4909091,56 23.8636364,56 L23.8636364,56 Z" id="Shape"></path>
                                    <path d="M44.3181818,26.8321667 C43.6909091,26.8321667 43.1818182,26.3106667 43.1818182,25.6655 L43.1818182,11.6666667 L5.68181818,11.6666667 C2.54886364,11.6666667 0,9.04983333 0,5.83333333 C0,2.61683333 2.54886364,0 5.68181818,0 L44.3181818,0 C44.9454545,0 45.4545455,0.5215 45.4545455,1.16666667 C45.4545455,1.81183333 44.9454545,2.33333333 44.3181818,2.33333333 L5.68181818,2.33333333 C3.80227273,2.33333333 2.27272727,3.90366667 2.27272727,5.83333333 C2.27272727,7.763 3.80227273,9.33333333 5.68181818,9.33333333 L45.4545455,9.33333333 L45.4545455,25.6655 C45.4545455,26.3106667 44.9454545,26.8321667 44.3181818,26.8321667 L44.3181818,26.8321667 Z" id="Shape"></path>
                                    <path d="M36.3636364,56 C28.8443182,56 22.7272727,49.7198333 22.7272727,42 C22.7272727,34.2801667 28.8443182,28 36.3636364,28 C43.8829545,28 50,34.2801667 50,42 C50,49.7198333 43.8829545,56 36.3636364,56 L36.3636364,56 Z M36.3636364,30.3333333 C30.0977273,30.3333333 25,35.567 25,42 C25,48.433 30.0977273,53.6666667 36.3636364,53.6666667 C42.6295455,53.6666667 47.7272727,48.433 47.7272727,42 C47.7272727,35.567 42.6295455,30.3333333 36.3636364,30.3333333 L36.3636364,30.3333333 Z" id="Shape"></path>
                                    <path d="M36.3636364,49 C35.7363636,49 35.2272727,48.4785 35.2272727,47.8333333 L35.2272727,36.1666667 C35.2272727,35.5215 35.7363636,35 36.3636364,35 C36.9909091,35 37.5,35.5215 37.5,36.1666667 L37.5,47.8333333 C37.5,48.4785 36.9909091,49 36.3636364,49 L36.3636364,49 Z" id="Shape"></path>
                                    <path d="M36.3636364,49.483 L31.0147727,43.9915 C30.5704545,43.5353333 30.5704545,42.798 31.0147727,42.3418333 C31.4590909,41.8856667 32.1772727,41.8856667 32.6215909,42.3418333 L36.3636364,46.1836667 L40.1056818,42.3418333 C40.55,41.8856667 41.2681818,41.8856667 41.7125,42.3418333 C42.1568182,42.798 42.1568182,43.5353333 41.7125,43.9915 L36.3636364,49.483 L36.3636364,49.483 Z" id="Shape"></path>
                                    <rect id="Rectangle-path" x="5.68181818" y="4.66666667" width="37.5" height="2.33333333"></rect>
                                </g>
                            </g>
                        </g>
                    </g>
                </g>
            </g>
        </g>
    </g>
</svg>