<?xml version="1.0" encoding="UTF-8" standalone="no"?>
<svg width="50px" height="50px" viewBox="0 0 50 50" version="1.1" xmlns="http://www.w3.org/2000/svg" xmlns:xlink="http://www.w3.org/1999/xlink">
    <!-- Generator: Sketch 3.6 (26304) - http://www.bohemiancoding.com/sketch -->
    <title>Shape</title>
    <desc>Created with Sketch.</desc>
    <defs></defs>
    <g id="Home" stroke="none" stroke-width="1" fill="none" fill-rule="evenodd">
        <g id="Desktop-HD" transform="translate(-545.000000, -1020.000000)">
            <g id="showcase" transform="translate(135.000000, 784.000000)">
                <g id="showcase-items" transform="translate(0.000000, 201.000000)">
                    <g id="showcase-item" transform="translate(286.000000, 0.000000)">
                        <g id="showcase-item__icon" transform="translate(89.000000, 0.000000)">
                            <circle id="Oval-5" stroke="#D7D7D7" fill="#FBFBFB" cx="60" cy="60" r="60"></circle>
                            <g id="1403227971_search" transform="translate(35.000000, 35.000000)" fill="#38CD8A">
                                <g id="search_1_">
                                    <path d="M31.25,0.0078125 C20.8953125,0.0078125 12.5,8.403125 12.5,18.7578125 C12.5,21.9234375 13.2921875,24.903125 14.6796875,27.5203125 L1.6421875,40.5546875 L1.653125,40.5640625 C0.634375,41.565625 0,42.953125 0,44.4953125 C0,47.540625 2.46875,50.009375 5.5140625,50.009375 C7.053125,50.009375 8.4421875,49.375 9.44375,48.3546875 L9.440625,48.3515625 L22.4734375,35.3203125 C25.0921875,36.7125 28.0765625,37.5078125 31.25,37.5078125 C41.6046875,37.5078125 50,29.1125 50,18.7578125 C50,8.403125 41.6046875,0.0078125 31.25,0.0078125 L31.25,0.0078125 Z M7.4921875,46.4015625 C6.9890625,46.9234375 6.2921875,47.25 5.5140625,47.25 C3.990625,47.25 2.75625,46.0171875 2.75625,44.49375 C2.75625,43.715625 3.084375,43.0203125 3.6046875,42.515625 L3.590625,42.503125 L16.19375,29.9 C17.2953125,31.3859375 18.6078125,32.6984375 20.090625,33.803125 L7.4921875,46.4015625 L7.4921875,46.4015625 Z M31.25,34.384375 C22.621875,34.384375 15.625,27.3859375 15.625,18.759375 C15.625,10.13125 22.621875,3.134375 31.25,3.134375 C39.8765625,3.134375 46.875,10.13125 46.875,18.759375 C46.875,27.3859375 39.8765625,34.384375 31.25,34.384375 L31.25,34.384375 Z" id="Shape"></path>
                                    <path d="M31.25,7.8203125 C25.2078125,7.8203125 20.3125,12.7171875 20.3125,18.7578125 C20.3125,19.1890625 20.6625,19.5390625 21.09375,19.5390625 C21.525,19.5390625 21.875,19.1890625 21.875,18.7578125 C21.875,13.58125 26.071875,9.3828125 31.25,9.3828125 C31.6796875,9.3828125 32.03125,9.0328125 32.03125,8.6015625 C32.03125,8.1703125 31.6796875,7.8203125 31.25,7.8203125 L31.25,7.8203125 Z" id="Shape"></path>
                                </g>
                            </g>
                        </g>
                    </g>
                </g>
            </g>
        </g>
    </g>
</svg>