<?xml version="1.0" encoding="UTF-8" standalone="no"?>
<svg width="50px" height="50px" viewBox="0 0 50 50" version="1.1" xmlns="http://www.w3.org/2000/svg" xmlns:xlink="http://www.w3.org/1999/xlink">
    <!-- Generator: Sketch 3.6 (26304) - http://www.bohemiancoding.com/sketch -->
    <title>Expanded</title>
    <desc>Created with Sketch.</desc>
    <defs></defs>
    <g id="Home" stroke="none" stroke-width="1" fill="none" fill-rule="evenodd">
        <g id="Desktop-HD" transform="translate(-245.000000, -1020.000000)">
            <g id="showcase" transform="translate(135.000000, 784.000000)">
                <g id="showcase-items" transform="translate(0.000000, 201.000000)">
                    <g id="showcase-item">
                        <g id="showcase-item__icon" transform="translate(75.000000, 0.000000)">
                            <circle id="Oval-4" stroke="#D7D7D7" fill="#FBFBFB" cx="60" cy="60" r="60"></circle>
                            <g id="Expanded" transform="translate(35.000000, 35.000000)" fill="#38CD8A">
                                <g id="Group">
                                    <path d="M33.3333333,29.1666667 C33.1989583,29.1666667 33.0635417,29.1416667 32.934375,29.0875 C32.5447917,28.9270833 32.2916667,28.5458333 32.2916667,28.125 L32.2916667,20.8333333 L29.1666667,20.8333333 C28.590625,20.8333333 28.125,20.3677083 28.125,19.7916667 C28.125,19.215625 28.590625,18.75 29.1666667,18.75 L33.3333333,18.75 C33.909375,18.75 34.375,19.215625 34.375,19.7916667 L34.375,25.6104167 L40.9302083,19.0552083 C41.125,18.859375 41.3895833,18.75 41.6666667,18.75 L47.9166667,18.75 L47.9166667,2.08333333 L18.75,2.08333333 L18.75,9.375 C18.75,9.95104167 18.284375,10.4166667 17.7083333,10.4166667 C17.1322917,10.4166667 16.6666667,9.95104167 16.6666667,9.375 L16.6666667,1.04166667 C16.6666667,0.465625 17.1322917,0 17.7083333,0 L48.9583333,0 C49.534375,0 50,0.465625 50,1.04166667 L50,19.7916667 C50,20.3677083 49.534375,20.8333333 48.9583333,20.8333333 L42.0979167,20.8333333 L34.0697917,28.8614583 C33.8708333,29.0604167 33.6041667,29.1666667 33.3333333,29.1666667 L33.3333333,29.1666667 Z" id="Shape"></path>
                                    <path d="M33.3333333,50 L0,50 L0,45.85625 C0,43.3375 1.59375,41.0760417 3.96770833,40.2291667 L11.5135417,37.5333333 L11.5135417,33.79375 L13.596875,33.79375 L13.596875,39.0020833 L4.66666667,42.190625 C3.121875,42.7427083 2.08333333,44.215625 2.08333333,45.85625 L2.08333333,47.9166667 L31.25,47.9166667 L31.25,45.85625 C31.25,44.215625 30.2125,42.7427083 28.6677083,42.1895833 L19.7375,39.0010417 L19.7375,33.5104167 L21.8208333,33.5104167 L21.8208333,37.5333333 L29.36875,40.2291667 C31.740625,41.0770833 33.3333333,43.3375 33.3333333,45.85625 L33.3333333,50 L33.3333333,50 Z" id="Shape"></path>
                                    <path d="M16.4614583,36.0197917 C11.353125,36.0197917 7.19583333,31.125 7.19583333,25.1083333 C7.19583333,19.09375 11.3520833,14.1989583 16.4614583,14.1989583 C21.5708333,14.1989583 25.7270833,19.0927083 25.7270833,25.1083333 C25.7260417,31.125 21.5697917,36.0197917 16.4614583,36.0197917 L16.4614583,36.0197917 Z M16.4614583,16.2833333 C12.5010417,16.2833333 9.27916667,20.2427083 9.27916667,25.109375 C9.27916667,29.9770833 12.5010417,33.9375 16.4614583,33.9375 C20.421875,33.9375 23.64375,29.9770833 23.64375,25.109375 C23.6427083,20.2427083 20.4208333,16.2833333 16.4614583,16.2833333 L16.4614583,16.2833333 Z" id="Shape"></path>
                                    <path d="M22.4739583,25.471875 C20.5177083,25.471875 18.9635417,24.6416667 17.6427083,22.89375 C16.1697917,24.3135417 13.7447917,25.328125 11.5270833,25.328125 C10.1791667,25.328125 9.01354167,25.046875 7.859375,24.4427083 L8.82604167,22.5979167 C9.68125,23.0458333 10.5145833,23.2447917 11.5270833,23.2447917 C13.5708333,23.2447917 16.0822917,21.9989583 16.796875,20.6302083 L17.6791667,18.940625 L18.625,20.5958333 C19.990625,22.9875 21.3604167,23.70625 23.665625,23.2645833 C23.8958333,23.2208333 24.10625,23.21875 24.3104167,23.21875 C24.3802083,23.21875 24.4510417,23.2229167 24.5270833,23.2135417 L24.7791667,25.2802083 C24.609375,25.3020833 24.4520833,25.303125 24.290625,25.3020833 C24.2177083,25.2989583 24.1385417,25.2947917 24.05625,25.3104167 C23.5020833,25.4166667 22.975,25.471875 22.4739583,25.471875 L22.4739583,25.471875 Z" id="Shape"></path>
                                    <path d="M38.5416667,10.4166667 C37.965625,10.4166667 37.5,10.8833333 37.5,11.4583333 C37.5,12.0333333 37.965625,12.5 38.5416667,12.5 C39.1177083,12.5 39.5833333,12.0333333 39.5833333,11.4583333 C39.5833333,10.8833333 39.1177083,10.4166667 38.5416667,10.4166667 L38.5416667,10.4166667 L38.5416667,10.4166667 Z" id="Shape"></path>
                                    <path d="M33.3333333,10.4166667 C32.7572917,10.4166667 32.2916667,10.8833333 32.2916667,11.4583333 C32.2916667,12.0333333 32.7572917,12.5 33.3333333,12.5 C33.909375,12.5 34.375,12.0333333 34.375,11.4583333 C34.375,10.8833333 33.909375,10.4166667 33.3333333,10.4166667 L33.3333333,10.4166667 L33.3333333,10.4166667 Z" id="Shape"></path>
                                    <path d="M28.125,10.4166667 C27.5489583,10.4166667 27.0833333,10.8833333 27.0833333,11.4583333 C27.0833333,12.0333333 27.5489583,12.5 28.125,12.5 C28.7010417,12.5 29.1666667,12.0333333 29.1666667,11.4583333 C29.1666667,10.8833333 28.7010417,10.4166667 28.125,10.4166667 L28.125,10.4166667 L28.125,10.4166667 Z" id="Shape"></path>
                                </g>
                            </g>
                        </g>
                    </g>
                </g>
            </g>
        </g>
    </g>
</svg>