<?xml version="1.0" encoding="UTF-8" standalone="no"?>
<svg width="40px" height="40px" viewBox="0 0 40 40" version="1.1" xmlns="http://www.w3.org/2000/svg" xmlns:xlink="http://www.w3.org/1999/xlink">
    <!-- Generator: Sketch 3.6 (26304) - http://www.bohemiancoding.com/sketch -->
    <title>footer-social__item--twitter</title>
    <desc>Created with Sketch.</desc>
    <defs></defs>
    <g id="Home" stroke="none" stroke-width="1" fill="none" fill-rule="evenodd">
        <g id="Desktop-HD" transform="translate(-700.000000, -2386.000000)">
            <g id="footer" transform="translate(0.000000, 2339.000000)">
                <rect id="footer__background" fill="#38CD8A" x="0" y="0" width="1440" height="213"></rect>
                <g id="footer-social" transform="translate(630.000000, 47.000000)">
                    <g id="footer-social__item--twitter" transform="translate(70.000000, 0.000000)">
                        <path d="M20,40 C31.0456955,40 40,31.0456955 40,20 C40,8.95430446 31.0456955,0 20,0 C8.95430446,0 0,8.95430446 0,20 C0,31.0456955 8.95430446,40 20,40 Z" id="Twitter-BG" fill="#FFFFFF"></path>
                        <path d="M16.9415121,28.8 C14.5316215,28.8 12.2885021,28.0644816 10.4,26.803842 C10.7338469,26.8448757 11.0735521,26.8658679 11.4179743,26.8658679 C13.4172515,26.8658679 15.2572896,26.1555402 16.7177556,24.9638974 C14.8504042,24.9280127 13.274446,23.6434498 12.7314503,21.8782058 C12.9919544,21.9300921 13.2593058,21.9578968 13.5342653,21.9578968 C13.9234998,21.9578968 14.300485,21.903634 14.658602,21.8020794 C12.7063433,21.3939598 11.2354541,19.5981384 11.2354541,17.4453708 C11.2354541,17.4266759 11.2354541,17.4080602 11.2357584,17.3895237 C11.811165,17.7223091 12.4691203,17.9221705 13.1686923,17.9452223 C12.0236614,17.1484701 11.2702235,15.7884939 11.2702235,14.2470344 C11.2702235,13.4327755 11.4806657,12.6695316 11.8479886,12.0133082 C13.9527152,14.701416 17.0970994,16.470304 20.643728,16.6555897 C20.5709938,16.330409 20.5331812,15.9912863 20.5331812,15.6430538 C20.5331812,13.1893455 22.4438992,11.2 24.8006847,11.2 C26.0280361,11.2 27.1370804,11.7396178 27.9155492,12.6031488 C28.8875701,12.403842 29.8008559,12.0340628 30.6253543,11.5249431 C30.3067237,12.5624319 29.6301284,13.4331716 28.7490252,13.9830874 C29.6122492,13.8756709 30.4346933,13.6368353 31.2,13.2834538 C30.627865,14.1744727 29.9043272,14.9570453 29.0706229,15.5834835 C29.0788398,15.7739974 29.0829482,15.9656204 29.0829482,16.1582731 C29.0829482,22.0296663 24.790718,28.8 16.9415121,28.8" id="Twitter-Logo" fill="#38CD8A"></path>
                    </g>
                </g>
            </g>
        </g>
    </g>
</svg>